<?xml version="1.0" encoding="utf-8"?>
<!-- Generator: Adobe Illustrator 25.2.1, SVG Export Plug-In . SVG Version: 6.00 Build 0)  -->
<svg version="1.1" id="Layer_1" xmlns="http://www.w3.org/2000/svg" xmlns:xlink="http://www.w3.org/1999/xlink" x="0px" y="0px"
	 viewBox="0 0 1356.48 815.04" style="enable-background:new 0 0 1356.48 815.04;" xml:space="preserve">
<style type="text/css">
	.st0{fill:#49C0F6;}
	.st1{fill:#9B45EC;}
</style>
<g>
	<path class="st0" d="M716.32,100.1c10.18-19.89,13.58-42.06,21.15-62.85c2.78-7.63,6.31-10.56,14.37-10.5
		c41.27,0.3,82.54,0.33,123.81,0c11.82-0.1,14.27,4.32,10.93,15.12c-29.24,94.34-58.32,188.74-87.25,283.18
		c-32.75,106.89-65.31,213.83-97.91,320.76c-7.31,23.97-14.57,47.96-21.58,72.03c-2.02,6.95-5.29,10.58-13.23,10.11
		c-8.18-0.48-16.44,0.47-24.65,0.78c-33.96-0.17-67.94-0.82-101.9-0.24c-12.64,0.22-14.87-3.47-11.13-14.96
		c9.56-29.39,18.22-59.07,27.35-88.6c18.11-58.55,36.44-117.03,54.39-175.63c15.68-51.2,30.93-102.53,46.44-153.78
		C676.8,230.36,696.57,165.23,716.32,100.1z"/>
	<path class="st0" d="M934.6,541.2c3.79-11.28,2.02-22.94,2.06-34.43c0.02-8.14,2.63-13.49,10.75-16.49
		c30.31-11.18,57.33-29.11,86.48-42.79c12.49-5.87,26.03-11.66,36.4-21.81c18.56-3.47,31.45-18.44,49.12-24
		c12.42-3.91,23.51-10.87,34.42-18.03c6.76-4.43,8.06-7.59,0.1-12.22c-25.35-14.76-49.76-31.3-75.86-44.54
		c-43.46-22.05-83.25-50.46-127.3-71.41c-10.65-5.06-17.52-13.31-15.96-26.49c0.68-5.72-0.07-11.6-0.17-17.41
		c4.68-28.83,1.33-57.84,1.77-86.76c0.07-4.83-1.04-9.54,2.59-13.32c29.36,16.64,59.24,32.2,87.7,50.01
		c50.94,31.88,104.39,59.5,154.78,92.3c16.93,11.02,35.17,20.08,52.7,30.16c32.12,18.47,63.69,37.83,95.81,56.26
		c6.01,3.45,7.79,7.65,7.71,14.06c-0.24,19.37-0.44,38.75,0.08,58.1c0.22,8.41-2.57,13.21-10.48,16.47
		c-16.43,6.77-31.76,15.64-45.74,26.72c-13.39,3.17-24.05,11.76-36.01,17.68c-35.37,17.53-69.81,36.8-104.99,54.53
		c-28.38,14.31-56.35,29.51-85.06,43.28c-35.53,17.03-69.98,36.28-105.1,54.18c-13.67,6.97-15.36,5.56-15.44-10.04
		C934.82,590.55,934.72,565.88,934.6,541.2z"/>
	<path class="st0" d="M71.14,384.12c0.18-1.93,0.92-3.99,0.47-5.76c-6.75-26.76,9.25-39.99,29.65-51.45
		c41.16-23.12,82.43-46.12,122.85-70.49c47.36-28.55,95.18-56.26,143.14-83.78c33.71-19.35,66.55-40.19,99.81-60.31
		c5.26-3.19,6.92-0.37,6.92,4.57c0,40.68,0.41,81.37-0.34,122.04c-0.17,9.47-10.25,12.94-17.41,17.25
		c-12.42,7.48-26.42,12.13-38.11,20.96c-17.5,15.36-39.68,23.03-59.17,35.26c-33.68,21.12-69.34,39.24-103.6,59.63
		c-5.72,3.4-8,5.48-1.48,9.84c8.74,5.83,16.84,12.89,27.81,14.46c23.92,15.25,49.53,27.29,74.83,40.02
		c37.3,18.77,73.47,39.79,111.89,56.36c5.82,2.51,5.57,7.34,5.58,12.11c0.07,38.18-0.16,76.35,0.23,114.52
		c0.1,10.15-3.65,10.28-11.07,6.45c-14.78-7.65-29.68-15.07-44.53-22.59c-35.79-15.71-69.37-35.68-104.01-53.59
		c-38.06-19.68-75.86-39.93-114.12-59.15c-29.27-14.7-57.49-31.51-87.67-44.46C85.75,434.4,62.15,420.08,71.14,384.12z"/>
	<path class="st1" d="M71.14,384.12c-9,35.96,14.6,50.28,41.67,61.89c30.18,12.95,58.4,29.75,87.67,44.46
		c38.26,19.22,76.05,39.46,114.12,59.15c34.64,17.91,68.22,37.88,104.01,53.59c-0.07,28.58-0.71,57.18,0.03,85.74
		c0.35,13.28-4.08,14.04-13.82,8.14c-39.39-23.86-82.05-41.55-121.78-64.91c-26.51-15.59-55.11-27.6-82.42-41.86
		c-43.75-22.85-87.13-46.39-130.85-69.3c-12.43-6.51-25.44-11.93-38.25-17.68c-10.25-4.6-15.71-11.68-15.31-23.54
		c0.57-16.94,0.45-33.91,0.02-50.86c-0.25-9.86,3.22-16.23,12.43-20.58C43.41,401.41,58.05,394.07,71.14,384.12z"/>
	<path class="st1" d="M716.32,100.1c-19.75,65.13-39.52,130.26-59.23,195.41c-15.51,51.25-30.75,102.58-46.44,153.78
		c-17.95,58.6-36.29,117.08-54.39,175.63c-9.13,29.53-17.79,59.21-27.35,88.6c-3.74,11.49-1.51,15.18,11.13,14.96
		c33.96-0.58,67.94,0.07,101.9,0.24c-5.72,18.95-11.59,37.84-17.09,56.84c-2.47,8.53-6.8,12.32-16.48,12.19
		c-41.76-0.55-83.53-0.4-125.29-0.1c-9.14,0.07-12.54-0.42-9.06-11.62c27.79-89.31,54.61-178.92,82.02-268.36
		c18.37-59.94,37.38-119.69,55.8-179.61c22.39-72.82,45.09-145.55,66.18-218.75c4.74-16.46,12.05-22.51,28.13-19.75
		C709.47,100.12,712.92,99.93,716.32,100.1z"/>
	<path class="st1" d="M934.65,211.58c0.1,5.81,0.84,11.69,0.17,17.41c-1.56,13.18,5.31,21.43,15.96,26.49
		c44.04,20.95,83.83,49.36,127.3,71.41c26.1,13.24,50.51,29.79,75.86,44.54c7.96,4.63,6.65,7.79-0.1,12.22
		c-10.91,7.16-22,14.12-34.42,18.03c-17.67,5.56-30.56,20.53-49.12,24c-52.36-30.24-104.2-61.38-157.5-90.04
		c-8.15-4.38-15.68-10.85-24.28-14.92c-7.08-3.34-8.19-8.98-8.2-15.48c-0.07-37.25,0.11-74.51-0.18-111.76
		c-0.08-11.04,4.37-11.3,12.23-6.53C906.31,195.43,919.22,205.65,934.65,211.58z"/>
	<path class="st1" d="M934.6,541.2c0.11,24.67,0.21,49.34,0.35,74.02c0.08,15.6,1.77,17.01,15.44,10.04
		c35.12-17.9,69.57-37.15,105.1-54.18c28.71-13.76,56.68-28.97,85.06-43.28c35.18-17.74,69.62-37,104.99-54.53
		c11.96-5.93,22.62-14.52,36.01-17.68c0.46,44.68,5.96,37.28-34.23,57.41c-56.32,28.21-112.2,57.33-167.95,86.65
		c-36.61,19.25-73.86,37.41-109.87,57.6c-25.13,14.1-52.7,23.39-76.35,40.21c-9.28,6.6-13.26,3.54-13.08-8.23
		c0.56-35.87,0.51-71.76,0.01-107.63c-0.14-9.72,2.98-15.69,12.2-18.66C907.58,558.02,918.86,545.27,934.6,541.2z"/>
	<path class="st1" d="M281.68,396.34c-10.97-1.57-19.07-8.63-27.81-14.46c-6.53-4.35-4.24-6.43,1.48-9.84
		c34.26-20.39,69.92-38.51,103.6-59.63c19.49-12.22,41.67-19.89,59.17-35.26c1.13,41.49,1.33,41.87-34.54,60.36
		C348.66,355.5,314.89,375.42,281.68,396.34z"/>
</g>
</svg>
